<?xml version="1.0" encoding="utf-8"?>
<!-- Generator: Adobe Illustrator 24.0.2, SVG Export Plug-In . SVG Version: 6.00 Build 0)  -->
<svg version="1.1" id="Layer_1" xmlns="http://www.w3.org/2000/svg" xmlns:xlink="http://www.w3.org/1999/xlink" x="0px" y="0px"
	 viewBox="0 0 1000 1000" style="enable-background:new 0 0 1000 1000;" xml:space="preserve">
<style type="text/css">
	.st0{fill:#FF4F1F;}
</style>
<g transform="translate(0.000000,1000.000000) scale(0.100000,-0.100000)">
	<path class="st0" d="M3271,9989c-483-60-876-426-966-902c-12-65-15-184-15-664c0-552,1-591,21-686c50-249,193-483,391-641
		c108-87,289-178,423-212c133-34,320-43,456-20c488,80,864,468,929,958c8,55,10,276,8,658l-4,575l-27,98c-31,118-109,284-174,376
		c-161,226-422,394-690,445C3517,9994,3362,10001,3271,9989z M3578,9564c79-20,207-85,271-137c105-88,180-197,229-334l27-78v-590
		v-590l-27-80c-40-116-92-199-183-290c-141-143-326-213-529-203c-259,14-494,171-603,405c-62,135-63,140-63,758c0,633-2,615,76,774
		C2919,9490,3259,9645,3578,9564z"/>
	<path class="st0" d="M6505,9994c-338-36-630-203-818-465c-65-92-143-258-174-376l-27-98l-4-575c-2-382,0-603,8-658
		c65-490,441-878,929-958c136-23,323-14,456,20c134,34,315,125,423,212c198,158,341,392,391,641c20,95,21,134,21,686
		c0,480-3,599-15,664c-84,445-432,796-879,887C6740,9990,6570,10001,6505,9994z M6714,9575c226-40,413-178,512-380
		c76-154,74-139,74-770c0-618-1-623-63-758c-109-234-344-391-603-405c-131-6-228,14-354,76c-165,80-295,232-358,417l-27,80v590v590
		l28,79c104,295,360,484,668,495C6611,9589,6666,9583,6714,9575z"/>
	<path class="st0" d="M948,7244c-419-65-779-377-896-779C7,6312,5,6283,5,5675c0-555,1-584,21-675c74-331,283-608,574-758
		c163-85,293-120,475-129c490-23,943,287,1104,756c53,156,54,159,58,751c3,358,1,587-6,646c-32,272-174,544-374,716
		C1603,7200,1274,7295,948,7244z M1300,6825c139-37,298-144,382-255c49-65,110-193,129-270c11-43,14-176,14-620c0-630,1-620-71-764
		c-176-351-590-493-939-321c-189,92-318,246-377,450c-23,79-23,85-23,640s0,561,23,640c38,130,85,209,187,310
		c115,116,230,177,383,205C1071,6852,1232,6844,1300,6825z"/>
	<path class="st0" d="M8730,7249c-179-23-404-119-548-235c-230-183-378-453-413-748c-7-59-9-288-6-646c4-592,5-595,58-751
		c161-469,614-779,1104-756c182,9,312,44,475,129c291,150,500,427,574,758c20,91,21,120,21,675c0,608-2,637-47,790
		c-82,280-297,537-561,671C9190,7236,8949,7277,8730,7249z M9075,6820c124-39,202-86,300-185c102-101,149-180,187-310
		c23-79,23-85,23-640s0-561-23-640c-59-204-188-358-377-450c-247-121-524-92-742,79c-116,91-208,229-250,376c-16,60-18,112-18,630
		c0,624-1,615,65,755c47,101,115,191,188,250c70,57,219,130,292,144c30,6,64,13,75,15C8841,6855,9008,6840,9075,6820z"/>
	<path class="st0" d="M4869,6340c-322-30-627-156-874-361c-90-74-2645-2651-2721-2744c-303-370-457-828-441-1315
		c13-417,141-786,388-1121c72-97,233-266,334-349c274-225,627-374,995-420c109-13,361-13,470,0c420,52,803,222,1129,499
		c45,38,1568,1649,1639,1733l23,27l-88,83c-48,46-115,109-148,140l-61,57l-797-848c-793-844-878-928-1037-1031
		c-154-99-374-189-575-232c-86-19-131-22-320-22s-234,3-317,21c-311,70-546,199-768,422c-228,229-364,479-432,795
		c-30,139-32,443-4,591c48,259,167,516,329,710c80,97,2600,2634,2682,2700c415,338,1011,347,1441,21c32-24,654-640,1380-1368
		c1278-1280,1324-1327,1397-1438c131-198,214-398,260-624c32-160,31-463-2-616c-88-411-311-740-661-975c-492-330-1141-348-1659-46
		c-124,73-230,161-426,353l-191,187l-145-145l-144-144l160-161c88-88,203-197,255-241c200-169,421-293,660-372
		c414-136,835-136,1247-1c804,265,1342,1004,1343,1845c0,478-157,928-457,1307c-34,43-664,679-1400,1414
		C5874,6128,5945,6062,5710,6180C5462,6304,5140,6366,4869,6340z"/>
</g>
</svg>
