<svg xmlns="http://www.w3.org/2000/svg" width="144" height="32" viewBox="0 0 144 32" fill="none">
  <g clip-path="url(#clip0)">
    <path
      d="M77.8023 19.0429L75.3348 17.5778C72.5589 16.0356 71.0939 15.0332 71.0939 13.1826C71.0939 11.7947 72.3276 10.7151 73.9469 10.7151C77.1854 10.7151 78.7276 13.2597 79.1132 16.4212H79.6529L80.8867 9.55852C79.8071 9.09587 78.1107 8.78743 76.4144 8.78743C70.477 8.78743 67.5469 11.9489 67.5469 15.573C67.5469 18.6573 70.0915 20.2766 72.0963 21.3561L75.4891 23.2838C77.7252 24.4404 78.8047 25.5971 78.8047 27.2935C78.8047 28.6043 77.8023 30.1465 75.4891 30.1465C72.3276 30.1465 69.783 27.2935 68.7806 23.2067H68.318L67.0071 24.9802C65.3107 26.985 63.383 28.6043 60.2987 28.6043C55.518 28.6043 53.2818 25.0573 53.2818 20.2766H65.0023V17.1151C65.0023 12.72 62.8433 8.86454 57.5999 8.86454C51.4312 8.86454 48.424 14.4163 48.424 20.6621C48.424 23.438 49.118 25.7513 50.2746 27.6019C49.5035 28.4501 48.424 29.3754 46.9589 29.3754C45.4168 29.3754 44.6457 27.9103 44.6457 25.6742V-0.00292969C44.4915 0.0741788 44.3373 0.151287 44.183 0.228396C42.4095 1.07659 40.7903 1.69346 39.0168 2.15611C39.0939 2.31032 39.171 2.46454 39.171 2.61876C39.9421 4.62358 40.0192 7.01394 40.0192 9.55852V24.7489C40.0192 25.9055 40.1734 26.9079 40.4047 27.7561C39.7879 28.6043 38.9397 29.5296 37.783 29.5296C36.318 29.5296 35.1614 28.373 35.1614 26.0597V17.1923C35.1614 13.3368 34.3903 8.78743 27.9903 8.78743C22.3614 8.78743 20.0481 12.3344 20.0481 15.8043L24.2891 17.4236C24.2891 17.4236 23.7493 10.3296 27.6047 10.3296C30.6891 10.3296 30.612 13.7995 30.612 16.8067V17.8862C30.612 18.5802 28.9927 19.5055 25.9083 20.6621C23.2095 21.7416 19.1228 23.1296 19.1228 27.0621C19.1228 29.9151 21.2047 31.9971 24.2891 31.9971C26.7565 31.9971 29.1469 30.6091 30.6891 28.4501C30.7662 29.5296 32.4626 31.9971 35.0842 31.9971C37.783 31.9971 39.6336 30.3778 40.7903 28.8356C41.7927 30.9947 43.5662 31.9971 45.6481 31.9971C47.8842 31.9971 49.6577 30.0694 50.8144 28.373C52.5879 30.6091 55.1324 31.9971 58.0626 31.9971C61.6867 31.9971 64.2312 29.6067 65.6963 27.2935C66.6216 28.5272 69.5517 31.9971 74.1782 31.9971C78.0336 31.9971 81.7348 29.4525 81.7348 24.9802C81.8119 21.6645 79.5758 20.0453 77.8023 19.0429ZM30.6891 27.3706C29.6867 28.1417 28.4529 28.8356 27.1421 28.8356C24.9059 28.8356 23.8264 27.2164 23.8264 25.2886C23.8264 22.7441 25.1373 21.5874 29.1469 21.5874C30.5348 21.5874 30.6891 21.7416 30.6891 22.5898V27.3706ZM53.2818 18.426C53.2818 13.1826 54.5156 10.4067 56.983 10.4067C58.9879 10.4067 60.3758 12.4115 60.3758 16.9609C60.3758 18.7344 60.1445 18.9657 58.7565 18.9657H53.3589L53.2818 18.426Z"
      fill="#06492E" />
    <path
      d="M89.7539 24.7518V0C87.8262 0.925301 86.0527 1.61928 84.125 2.15904C85.0503 4.16386 85.1274 6.78554 85.1274 9.48434V24.6747C85.1274 27.0651 84.9732 28.9157 84.0479 31.3831H91.3732C91.4503 31.3831 89.7539 29.2241 89.7539 24.7518Z"
      fill="#06492E" />
    <path
      d="M101.937 8.79346C96.4624 8.79346 92.7612 13.42 92.7612 20.5139C92.7612 27.1453 96.154 32.0031 101.552 32.0031C107.026 32.0031 110.728 27.4537 110.728 20.4368C110.728 13.8055 107.335 8.79346 101.937 8.79346ZM102.091 30.2296C99.0841 30.2296 97.7733 24.832 97.7733 19.0489C97.7733 13.5742 98.9299 10.4127 101.32 10.4127C104.405 10.4127 105.638 16.0417 105.638 21.8248C105.638 27.4537 104.405 30.2296 102.091 30.2296Z"
      fill="#06492E" />
    <path
      d="M130.544 10.4108H136.867V9.17708H130.544V3.00841C129.002 4.01082 127.383 4.7819 125.686 5.39877C125.841 7.01805 125.841 8.02046 125.918 9.17708H118.284C117.667 7.32648 117.282 5.78431 117.282 4.55058C117.282 3.00841 117.821 2.16022 119.055 2.16022C120.289 2.16022 121.523 3.70239 122.602 7.55781H123.142L124.453 0.618048C124.453 0.618048 123.373 -0.0759277 121.831 -0.0759277C116.202 -0.0759277 113.966 4.24214 113.889 9.09998H111.344V10.3337H113.889V10.565V24.1361C113.889 26.5265 113.812 28.7626 112.809 31.3843H119.518C118.515 28.8397 118.438 26.5265 118.438 24.1361V10.6421V10.4108H125.918V10.6421V25.9096C125.918 29.9192 127.537 32.0012 130.236 32.0012C133.397 32.0012 135.633 29.3795 135.633 26.912C134.554 27.6831 133.706 28.2229 132.78 28.2229C130.544 28.2229 130.544 25.7554 130.544 24.753V10.6421V10.4108Z"
      fill="#06492E" />
    <path
      d="M4.93494 8.01912C4.93494 6.0143 6.86265 4.39502 9.33012 4.39502C12.4916 4.39502 14.4193 5.86008 15.4988 13.4938H16.1928L17.1952 3.08418C10.0241 0.616709 1.23373 3.2384 1.07952 10.7179C1.07952 18.8143 13.9566 18.8143 13.9566 26.2167C13.9566 28.3757 12.0289 29.8408 9.86988 29.8408C4.16386 29.8408 2.85301 25.0601 2.54458 20.048H1.8506L0 29.4553C0 29.4553 4.24096 31.9227 8.79036 31.9227C14.2651 31.8456 17.8892 27.836 18.0434 23.595C18.0434 15.4986 4.93494 13.8023 4.93494 8.01912Z"
      fill="#06492E" />
    <path
      d="M138.024 29.072C138.024 27.5298 139.258 26.219 140.877 26.219C142.574 26.219 143.808 27.5298 143.808 29.072C143.808 30.6142 142.574 31.925 140.955 31.925C139.181 32.0021 138.024 30.6142 138.024 29.072Z"
      fill="#B4D625" />
  </g>
  <defs>
    <clipPath id="clip0">
      <rect width="143.807" height="32" fill="white" />
    </clipPath>
  </defs>
</svg>